<svg width="32" height="32" viewBox="0 0 32 32" fill="none" xmlns="http://www.w3.org/2000/svg">
<path d="M16 0C12.8355 0 9.74207 0.938384 7.11088 2.69649C4.4797 4.45459 2.42894 6.95345 1.21793 9.87706C0.0069325 12.8007 -0.309921 16.0177 0.307443 19.1214C0.924806 22.2251 2.44866 25.0761 4.6863 27.3137C6.92394 29.5513 9.77487 31.0752 12.8786 31.6926C15.9823 32.3099 19.1993 31.9931 22.1229 30.7821C25.0466 29.5711 27.5454 27.5203 29.3035 24.8891C31.0616 22.2579 32 19.1645 32 16C32 11.7565 30.3143 7.68687 27.3137 4.68629C24.3131 1.68571 20.2435 0 16 0V0ZM13.71 22.71C13.617 22.8037 13.5064 22.8781 13.3846 22.9289C13.2627 22.9797 13.132 23.0058 13 23.0058C12.868 23.0058 12.7373 22.9797 12.6154 22.9289C12.4936 22.8781 12.383 22.8037 12.29 22.71L7.29001 17.71L8.71001 16.29L13 20.59L23.29 10.29L24.71 11.71L13.71 22.71Z" fill="#532B5D"/>
</svg>
