<svg width="67" height="67" viewBox="0 0 67 67" fill="none" xmlns="http://www.w3.org/2000/svg">
<path d="M38.004 33.5011L66.0651 5.43906C67.3099 4.19548 67.3099 2.17849 66.0651 0.934913C64.8203 -0.30994 62.8047 -0.30994 61.5611 0.934913L33.5 28.9957L5.43761 0.933639C4.19407 -0.311213 2.17587 -0.311213 0.933608 0.933639C-0.311203 2.17722 -0.311203 4.19421 0.933608 5.43779L28.9947 33.4998L0.933608 61.5632C-0.311203 62.808 -0.311203 64.8237 0.933608 66.0673C1.55538 66.6891 2.37081 67 3.18624 67C4.00168 67 4.81711 66.6891 5.43888 66.0673L33.5 38.0053L61.5611 66.0673C62.1829 66.6891 62.9983 67 63.8138 67C64.6292 67 65.4434 66.6891 66.0664 66.0673C67.3112 64.8225 67.3112 62.8068 66.0664 61.5632L38.004 33.5011Z" fill="#666666"/>
</svg>
