<?xml version="1.0" encoding="utf-8"?>
<!-- Generator: Adobe Illustrator 21.0.2, SVG Export Plug-In . SVG Version: 6.00 Build 0)  -->
<svg version="1.1" id="Layer_1" xmlns="http://www.w3.org/2000/svg" xmlns:xlink="http://www.w3.org/1999/xlink" x="0px" y="0px"
	 viewBox="0 0 137.9 26.7" style="enable-background:new 0 0 137.9 26.7;" xml:space="preserve">
<style type="text/css">
	.st0{fill:#494949;}
</style>
<title>Page 1 Copy</title>
<desc>Created with Sketch.</desc>
<g id="Symbols">
	<g id="header-top" transform="translate(-40.000000, -28.000000)">
		<g id="Group">
			<g id="Page-1-Copy" transform="translate(40.000000, 28.000000)">
				<path id="Fill-1" class="st0" d="M8.5,18c0.5-0.6,0.8-1,0.8-1.2V9.6C9.3,9.3,9,9,8.6,8.5C8.2,8,7.6,7.8,6.9,7.8
					c-1.1,0-1.8,0.7-2.2,2.2c-0.2,0.8-0.3,1.9-0.3,3.3c0,1.5,0.1,2.7,0.3,3.5c0.4,1.4,1.1,2.1,2.1,2.1C7.4,18.9,8,18.6,8.5,18
					 M1.7,8.1c1.1-1.4,2.5-2,4-2c0.8,0,1.5,0.2,2.1,0.6c0.4,0.2,0.9,0.7,1.4,1.3V2.4c0-0.8-0.1-1.2-0.4-1.4C8.5,0.9,7.9,0.8,7,0.7V0
					h6.4v17.2c0,0.6,0.1,1,0.3,1.3c0.2,0.2,0.7,0.4,1.4,0.4v0.7c-1.7,0.2-2.7,0.3-3.2,0.4c-0.5,0.1-1.3,0.3-2.6,0.6v-2
					c-0.6,0.6-1.1,1-1.5,1.3c-0.7,0.4-1.5,0.7-2.4,0.7c-1.5,0-2.7-0.6-3.8-1.8c-1.1-1.2-1.6-2.9-1.6-5C0,11.3,0.6,9.5,1.7,8.1"/>
				<path id="Fill-3" class="st0" d="M19.4,17.7c0.3,1.3,1,1.9,2,1.9c1,0,1.6-0.5,1.9-1.5c0.3-1,0.5-2.6,0.5-4.8
					c0-2.2-0.2-3.8-0.5-4.8C23,7.5,22.4,7,21.5,7c-1,0-1.7,0.6-2,1.9c-0.2,0.9-0.3,2.3-0.3,4.4C19.1,15.4,19.2,16.9,19.4,17.7
					 M16.6,8.1C17.9,6.7,19.5,6,21.4,6c2,0,3.6,0.7,4.8,2.1c1.3,1.4,1.9,3.1,1.9,5.2c0,2-0.6,3.7-1.9,5.1c-1.2,1.4-2.9,2.1-4.9,2.1
					c-1.9,0-3.6-0.7-4.8-2.1c-1.3-1.4-1.9-3.1-1.9-5.2C14.7,11.3,15.3,9.5,16.6,8.1"/>
				<path id="Fill-5" class="st0" d="M33.3,6.4v10.1c0,0.6,0.1,1,0.2,1.3c0.3,0.5,0.8,0.7,1.5,0.7c0.5,0,0.9-0.2,1.4-0.5
					c0.3-0.2,0.6-0.4,1-0.8V8.9c0-0.6-0.1-1.1-0.4-1.3c-0.2-0.2-0.7-0.4-1.5-0.4V6.4h5.9v10.8c0,0.6,0.1,1,0.4,1.3
					c0.2,0.2,0.7,0.4,1.4,0.4v0.7c-1.8,0.2-3,0.3-3.5,0.4c-0.5,0.1-1.3,0.3-2.3,0.6v-2c-0.7,0.6-1.3,1-1.8,1.3
					c-0.8,0.4-1.7,0.7-2.6,0.7c-1,0-1.9-0.3-2.7-0.9c-0.8-0.6-1.2-1.7-1.2-3.3V8.9c0-0.6-0.1-1.1-0.3-1.2c-0.2-0.2-0.6-0.4-1.2-0.5
					V6.4H33.3z"/>
				<path id="Fill-7" class="st0" d="M53,7c0.9,0.6,1.4,1.4,1.4,2.4c0,0.5-0.2,1-0.5,1.3c-0.4,0.4-0.8,0.6-1.4,0.6
					c-0.4,0-0.7-0.1-1-0.3c-0.5-0.3-0.8-0.9-0.8-1.7c0-0.1,0-0.2,0-0.4c0-0.2,0-0.4,0-0.5c0-0.5-0.1-0.9-0.4-1.1
					C50,7.1,49.7,7,49.4,7c-0.9,0-1.6,0.5-2,1.5c-0.4,1-0.6,2.2-0.6,3.5c0,1.9,0.4,3.4,1.1,4.7c0.7,1.3,1.7,1.9,3,1.9
					c0.8,0,1.5-0.2,2-0.5c0.3-0.2,0.7-0.6,1.2-1.1l0.6,0.5c-1,1.3-2.1,2.3-3.4,2.8c-0.7,0.3-1.4,0.4-2.2,0.4c-1.9,0-3.5-0.7-4.7-2.1
					c-1.2-1.4-1.8-3-1.8-5c0-2.1,0.6-3.8,1.9-5.3c1.3-1.5,3-2.2,5.2-2.2C51,6,52,6.4,53,7"/>
				<path id="Fill-9" class="st0" d="M53.9,19.9c0.5-0.1,0.9-0.2,1.2-0.4c0.3-0.2,0.4-0.7,0.4-1.4V2.9c0-0.6-0.1-1-0.3-1.3
					c-0.2-0.2-0.6-0.4-1.3-0.5V0.4h5.8v8.4c0.6-0.7,1.3-1.3,1.9-1.7c0.7-0.4,1.4-0.6,2.3-0.6c1.1,0,2.1,0.3,2.8,1
					c0.7,0.7,1.1,1.8,1.1,3.4v7.2c0,0.7,0.1,1.1,0.3,1.3c0.2,0.2,0.6,0.4,1.1,0.5v0.7h-7v-0.7c0.5-0.1,0.9-0.3,1.1-0.4
					c0.2-0.2,0.3-0.6,0.3-1.3V11c0-0.7-0.1-1.2-0.2-1.5c-0.2-0.6-0.7-0.9-1.4-0.9c-0.5,0-1,0.2-1.6,0.7c-0.6,0.5-0.8,0.8-0.8,1v8
					c0,0.7,0.1,1.1,0.3,1.3c0.2,0.2,0.6,0.3,1.1,0.4v0.7h-7.2V19.9z"/>
				<path id="Fill-11" class="st0" d="M77.1,11.7c0-1.8-0.2-3-0.4-3.7c-0.3-0.7-0.8-1-1.5-1c-0.8,0-1.3,0.4-1.6,1.2
					c-0.3,0.8-0.5,2-0.5,3.5H77.1z M70.8,8c1.2-1.3,2.7-1.9,4.4-1.9c1,0,1.9,0.3,2.8,0.8c0.9,0.5,1.5,1.2,2,2.1
					c0.3,0.7,0.6,1.6,0.7,2.7c0.1,0.5,0.1,0.9,0.1,1.2h-7.6c0.1,1.2,0.3,2.2,0.6,3.1c0.6,1.6,1.6,2.5,3.1,2.5c0.7,0,1.4-0.2,2-0.7
					c0.4-0.3,0.9-0.7,1.4-1.3l0.7,0.4c-0.9,1.5-2,2.6-3.2,3.2c-0.8,0.4-1.7,0.6-2.7,0.6c-1.5,0-2.8-0.6-4.1-1.7
					c-1.3-1.2-1.9-3-1.9-5.5C68.9,11,69.5,9.2,70.8,8L70.8,8z"/>
				<path id="Fill-13" class="st0" d="M85.4,19.2c0.7,0.2,1.3,0.3,1.8,0.3c1.4,0,2.4-0.5,3-1.5c0.7-1,1-2.2,1-3.7
					c0-1.4-0.3-2.8-0.9-4c-0.6-1.2-1.6-1.8-3-1.8c-0.7,0-1.4,0.2-2,0.6c-0.7,0.4-1,1-1,1.6v7.4C84.3,18.7,84.7,19,85.4,19.2
					L85.4,19.2z M79.8,2V1.5c1.1-0.3,2.1-0.5,3-0.8c0.9-0.3,1.4-0.5,1.4-0.5c0,0.1,0,0.1,0,0.2V9c0.3-0.5,0.6-0.9,1.1-1.3
					c0.9-0.7,1.9-1.1,3.1-1.1c1.4,0,2.6,0.6,3.7,1.8c1,1.2,1.5,2.8,1.5,4.7c0,2.1-0.7,3.8-2,5.3c-1.3,1.5-3,2.2-5.2,2.2
					c-1.1,0-2.1-0.2-3.2-0.6c-1-0.4-1.6-0.9-1.6-1.3V3.4c0-0.6-0.1-1-0.2-1.2c-0.2-0.2-0.5-0.4-1.1-0.4L79.8,2z"/>
				<path id="Fill-15" class="st0" d="M101.4,12.3c-1.1,0.4-2,0.8-2.8,1.2c-1.4,0.9-2.1,1.8-2.1,2.9c0,0.9,0.3,1.5,0.9,2
					c0.4,0.3,0.8,0.4,1.3,0.4c0.6,0,1.3-0.2,1.8-0.5c0.6-0.4,0.9-0.8,0.9-1.4V12.3z M96.1,13.9c0.9-0.6,2.7-1.4,5.3-2.4v-1.3
					c0-1-0.1-1.7-0.3-2.1c-0.3-0.7-1-1-2.1-1c-0.5,0-1,0.1-1.4,0.4C97.2,7.8,97,8.2,97,8.6c0,0.1,0,0.3,0.1,0.6
					c0,0.3,0.1,0.5,0.1,0.5c0,0.5-0.2,0.9-0.5,1.1c-0.2,0.1-0.4,0.2-0.7,0.2c-0.4,0-0.8-0.1-1-0.4c-0.2-0.3-0.3-0.6-0.3-1
					c0-0.7,0.4-1.4,1.3-2.1s2.1-1.1,3.7-1.1c1.9,0,3.2,0.6,3.8,1.8c0.4,0.7,0.5,1.6,0.5,2.9v5.9c0,0.6,0,1,0.1,1.2
					c0.1,0.4,0.4,0.6,0.8,0.6c0.2,0,0.4,0,0.6-0.1c0.1-0.1,0.4-0.2,0.8-0.5v0.8c-0.3,0.4-0.6,0.7-1,0.9c-0.5,0.4-1.1,0.6-1.7,0.6
					c-0.7,0-1.1-0.2-1.4-0.6c-0.3-0.4-0.5-0.9-0.5-1.5c-0.7,0.6-1.4,1.1-1.9,1.4c-0.9,0.5-1.7,0.8-2.5,0.8c-0.8,0-1.6-0.3-2.2-0.9
					c-0.6-0.6-0.9-1.3-0.9-2.2C94,16.1,94.7,14.9,96.1,13.9L96.1,13.9z"/>
				<path id="Fill-17" class="st0" d="M113.3,14.5c0.6-0.5,0.9-1.3,0.9-2.4c0-0.9-0.2-2-0.7-3.1c-0.5-1.2-1.3-1.7-2.4-1.7
					c-1,0-1.6,0.5-2,1.4c-0.2,0.5-0.3,1.1-0.3,1.8c0,1.2,0.3,2.2,0.9,3.2c0.6,0.9,1.3,1.4,2.2,1.4C112.5,15,112.9,14.8,113.3,14.5
					 M108.6,24.5c0.9,0.3,2,0.5,3.2,0.5c1.6,0,2.9-0.3,3.9-0.8c1-0.6,1.5-1.2,1.5-2.1c0-0.6-0.4-1.1-1.2-1.3
					c-0.5-0.1-1.5-0.2-2.9-0.2c-0.4,0-0.7,0-1.1,0c-0.4,0-0.8,0-1.1-0.1c-0.2,0-0.6,0-1-0.1c-0.5-0.1-0.8-0.1-1.1-0.2
					c-0.1,0-0.4,0.3-0.9,0.9c-0.5,0.6-0.7,1.2-0.7,1.7C107.3,23.7,107.7,24.2,108.6,24.5 M107.1,13.7c-0.5-0.7-0.7-1.6-0.7-2.5
					c0-1.1,0.5-2.2,1.4-3.2c0.9-1,2.2-1.5,3.8-1.5c0.7,0,1.5,0.2,2.3,0.5c0.9,0.3,1.7,0.5,2.5,0.5c0.2,0,0.5,0,0.9,0
					c0.4,0,0.7,0,0.9,0h0.2v1.2h-2.5c0.2,0.4,0.3,0.8,0.4,1.1c0.2,0.6,0.2,1.1,0.2,1.6c0,1.1-0.5,2.1-1.4,3.1
					c-0.9,0.9-2.2,1.4-3.7,1.4c-0.2,0-0.7,0-1.3-0.1c-0.3,0-0.7,0.2-1.1,0.7c-0.5,0.5-0.7,0.9-0.7,1.2c0,0.3,0.3,0.5,1,0.7
					c0.4,0.1,0.9,0.1,1.5,0.1c2.5,0,4.2,0.1,5.1,0.4c1.5,0.5,2.2,1.4,2.2,2.9c0,1.5-0.9,2.8-2.6,3.7c-1.7,0.9-3.4,1.4-5.2,1.4
					c-1.6,0-2.9-0.3-3.8-1c-0.9-0.6-1.4-1.3-1.4-2c0-0.3,0.1-0.7,0.4-1c0.2-0.3,0.7-0.8,1.5-1.5l1-0.9l0.2-0.2
					c-0.4-0.2-0.8-0.3-1-0.5c-0.4-0.3-0.6-0.6-0.6-1c0-0.4,0.2-0.8,0.5-1.2c0.3-0.4,1.1-1.1,2.2-2.1C108.3,15,107.6,14.5,107.1,13.7
					"/>
				<path id="Fill-19" class="st0" d="M119,15.6h0.5c0.2,1.1,0.5,2,0.9,2.5c0.7,1.1,1.7,1.6,3,1.6c0.7,0,1.3-0.2,1.7-0.6
					c0.4-0.4,0.6-0.9,0.6-1.6c0-0.4-0.1-0.8-0.4-1.2c-0.2-0.4-0.7-0.7-1.3-1.1l-1.6-0.9c-1.2-0.6-2.1-1.3-2.6-1.9
					c-0.6-0.7-0.8-1.4-0.8-2.3c0-1.1,0.4-2,1.2-2.7c0.8-0.7,1.8-1,2.9-1c0.5,0,1.1,0.1,1.7,0.3c0.6,0.2,1,0.3,1,0.3
					c0.2,0,0.3,0,0.4-0.1c0.1,0,0.1-0.1,0.2-0.2h0.3l0.1,4.1h-0.5c-0.2-0.9-0.5-1.7-0.8-2.2c-0.6-1-1.5-1.5-2.6-1.5
					c-0.7,0-1.2,0.2-1.6,0.6c-0.4,0.4-0.6,0.9-0.6,1.5c0,0.9,0.7,1.7,2,2.4l1.9,1c2.1,1.1,3.1,2.4,3.1,3.9c0,1.1-0.4,2.1-1.3,2.8
					c-0.9,0.7-2,1.1-3.4,1.1c-0.6,0-1.2-0.1-2-0.3c-0.7-0.2-1.2-0.3-1.3-0.3c-0.1,0-0.2,0-0.3,0.1c-0.1,0.1-0.2,0.2-0.2,0.3H119
					V15.6z"/>
				<path id="Fill-21" class="st0" d="M131.8,1.9l0,1.1h-0.1c0-0.2-0.1-0.3-0.1-0.4c-0.1-0.1-0.2-0.2-0.3-0.3
					c-0.1-0.1-0.3-0.1-0.4-0.1h-0.6v3.4c0,0.3,0,0.4,0.1,0.5c0.1,0.1,0.2,0.1,0.4,0.1h0.2v0.1H129V6.3h0.2c0.2,0,0.3-0.1,0.4-0.2
					c0-0.1,0.1-0.2,0.1-0.5V2.2h-0.5c-0.2,0-0.4,0-0.4,0c-0.1,0-0.2,0.1-0.3,0.2c-0.1,0.1-0.1,0.3-0.1,0.5h-0.1l0.1-1.1H131.8z"/>
				<path id="Fill-23" class="st0" d="M134.8,6.4L133,2.6v3c0,0.3,0,0.4,0.1,0.5c0.1,0.1,0.2,0.1,0.4,0.1h0.2v0.1h-1.6V6.3h0.2
					c0.2,0,0.3-0.1,0.4-0.2c0-0.1,0.1-0.2,0.1-0.5V2.7c0-0.2,0-0.3-0.1-0.4c0-0.1-0.1-0.1-0.2-0.2c-0.1,0-0.2-0.1-0.4-0.1V1.9h1.3
					l1.6,3.5l1.6-3.5h1.3V2h-0.2c-0.2,0-0.3,0.1-0.4,0.2c0,0.1-0.1,0.2-0.1,0.5v2.9c0,0.3,0,0.4,0.1,0.5c0.1,0.1,0.2,0.1,0.4,0.1
					h0.2v0.1H136V6.3h0.2c0.2,0,0.3-0.1,0.4-0.2c0-0.1,0.1-0.2,0.1-0.5v-3l-1.7,3.8H134.8z"/>
			</g>
		</g>
	</g>
</g>
</svg>
