<svg width="68" height="68" viewBox="0 0 68 68" fill="none" xmlns="http://www.w3.org/2000/svg">
<path d="M22.2082 60.7092L64.4287 60.7092C66.3603 60.7092 67.9241 62.273 67.9241 64.2046C67.9241 66.1363 66.3603 67.7 64.4287 67.7H22.2082C20.2765 67.7 18.7128 66.1363 18.7128 64.2046C18.7128 62.273 20.2765 60.7092 22.2082 60.7092Z" fill="#666666"/>
<path d="M3.99539 30.3546L64.4287 30.3546C66.3603 30.3546 67.9241 31.9183 67.9241 33.85C67.9241 35.7817 66.3603 37.3454 64.4287 37.3454L3.99539 37.3454C2.06373 37.3454 0.500009 35.7817 0.500009 33.85C0.500009 31.9183 2.06373 30.3546 3.99539 30.3546Z" fill="#666666"/>
<path d="M22.2082 1.161e-07L64.4287 1.161e-07C66.3603 1.161e-07 67.9241 1.56372 67.9241 3.49538C67.9241 5.42703 66.3603 6.99076 64.4287 6.99076L22.2082 6.99076C20.2765 6.99076 18.7128 5.42703 18.7128 3.49538C18.7128 1.56372 20.2765 1.161e-07 22.2082 1.161e-07Z" fill="#666666"/>
</svg>
