<svg width="16" height="16" viewBox="0 0 16 16" fill="none" xmlns="http://www.w3.org/2000/svg">
<path fill-rule="evenodd" clip-rule="evenodd" d="M0 4.5C0 4.22386 0.223858 4 0.5 4H15.5C15.7761 4 16 4.22386 16 4.5C16 4.77614 15.7761 5 15.5 5H0.5C0.223858 5 0 4.77614 0 4.5Z" fill="#111111"/>
<path fill-rule="evenodd" clip-rule="evenodd" d="M1.5 1C1.22414 1 1 1.22414 1 1.5V11.5C1 11.7759 1.22414 12 1.5 12H5.5C5.77614 12 6 12.2239 6 12.5C6 12.7761 5.77614 13 5.5 13H1.5C0.671858 13 0 12.3281 0 11.5V1.5C0 0.671858 0.671858 0 1.5 0H14.5C15.3281 0 16 0.671858 16 1.5V6.5C16 6.77614 15.7761 7 15.5 7C15.2239 7 15 6.77614 15 6.5V1.5C15 1.22414 14.7759 1 14.5 1H1.5Z" fill="#111111"/>
<path d="M13.525 8C12.742 8 11.9905 8.35313 11.5 8.91117C11.0095 8.35313 10.258 8 9.475 8C8.089 8 7 9.05504 7 10.3978C7 12.0458 8.53 13.3886 10.8475 15.4289L11.5 16L12.1525 15.4245C14.47 13.3886 16 12.0458 16 10.3978C16 9.05504 14.911 8 13.525 8ZM11.545 14.7793L11.5 14.8229L11.455 14.7793C9.313 12.9003 7.9 11.6578 7.9 10.3978C7.9 9.52589 8.575 8.87193 9.475 8.87193C10.168 8.87193 10.843 9.30354 11.0815 9.90082H11.923C12.157 9.30354 12.832 8.87193 13.525 8.87193C14.425 8.87193 15.1 9.52589 15.1 10.3978C15.1 11.6578 13.687 12.9003 11.545 14.7793Z" fill="black"/>
</svg>
