<svg width="78" height="84" viewBox="0 0 78 84" fill="none" xmlns="http://www.w3.org/2000/svg">
<path fill-rule="evenodd" clip-rule="evenodd" d="M4.4644 20.2967C4.58217 18.3102 6.22969 16.7684 8.21156 16.7684H69.4847C71.4582 16.7684 73.103 18.2983 73.2305 20.2772C73.2305 20.2774 73.2305 20.2777 73.2305 20.2779L76.9923 78.5889L76.9923 78.5892C77.1319 80.7566 75.4081 82.5798 73.2461 82.5798H4.75387C2.59972 82.5798 0.878602 80.7689 1.00672 78.6083L4.4644 20.2967C4.4644 20.2967 4.4644 20.2967 4.4644 20.2967ZM8.99305 21.3515L5.63418 77.9967H72.3614L68.7071 21.3515H8.99305ZM68.6568 20.5716L68.6568 20.5723Z" fill="#666666" stroke="#666666"/>
<path d="M28.7281 31.6588C28.7281 33.6209 27.1375 35.2115 25.1754 35.2115C23.2134 35.2115 21.623 33.6209 21.623 31.6588C21.623 29.6967 23.2134 28.1063 25.1754 28.1063C27.1376 28.1063 28.7281 29.6968 28.7281 31.6588Z" fill="#666666" stroke="#666666"/>
<path d="M55.8789 31.6588C55.8789 33.6208 54.2883 35.2115 52.3262 35.2115C50.3642 35.2115 48.774 33.6209 48.774 31.6588C48.774 29.6967 50.3642 28.1063 52.3262 28.1063C54.2883 28.1063 55.8789 29.6968 55.8789 31.6588Z" fill="#666666" stroke="#666666"/>
<path fill-rule="evenodd" clip-rule="evenodd" d="M27.6259 20.9252L27.6259 20.9264L27.626 20.9372V31.6589H23.0429V20.9596L23.0428 20.9507L23.0427 20.8981C23.0427 20.8547 23.0431 20.7949 23.0442 20.7196C23.0463 20.569 23.0514 20.3565 23.0632 20.0908C23.0866 19.5601 23.1365 18.8132 23.2425 17.9212C23.4529 16.1495 23.8912 13.7451 24.8172 11.3074C25.7406 8.87627 27.1932 6.2967 29.5004 4.31313C31.8514 2.29196 34.9652 1 38.9587 1C42.9525 1 46.063 2.29211 48.4077 4.31612C50.7084 6.30206 52.15 8.88417 53.0623 11.3162C53.9772 13.755 54.4043 16.16 54.6063 17.9318C54.708 18.8239 54.7544 19.5709 54.7754 20.1016C54.7858 20.3673 54.79 20.5799 54.7914 20.7304C54.7921 20.8057 54.7922 20.8656 54.792 20.9089L54.7917 20.9615L54.7916 20.9647V31.6589H50.2085V20.9318L50.2087 20.9167L50.2088 20.9144L50.2088 20.9128L50.2089 20.8911C50.209 20.8677 50.209 20.8284 50.2085 20.7744C50.2074 20.6662 50.2043 20.4993 50.1958 20.2822C50.1786 19.8472 50.1397 19.2146 50.0527 18.4511C49.8771 16.9119 49.5125 14.9021 48.7712 12.926C48.0274 10.9433 46.9481 9.11065 45.413 7.78551C43.9219 6.49842 41.8815 5.58315 38.9587 5.58315C36.036 5.58315 33.9886 6.49858 32.4882 7.78849C30.9441 9.116 29.8551 10.9512 29.1016 12.9349C28.3506 14.9119 27.9764 16.9224 27.7936 18.4617C27.703 19.2253 27.6611 19.858 27.6419 20.293C27.6323 20.5102 27.6284 20.677 27.6268 20.7852C27.6261 20.8392 27.6259 20.8785 27.6259 20.902L27.6259 20.9252Z" fill="#666666" stroke="#666666"/>
</svg>
