<svg width="90" height="86" viewBox="0 0 90 86" fill="none" xmlns="http://www.w3.org/2000/svg">
<path d="M46.89 1.27L59.16 26.15C59.3121 26.4561 59.5362 26.7208 59.8132 26.9211C60.0902 27.1214 60.4117 27.2514 60.75 27.3L88.2 31.3C88.5871 31.3572 88.9505 31.5214 89.2492 31.7741C89.5479 32.0268 89.7701 32.3579 89.8907 32.7301C90.0113 33.1023 90.0255 33.5008 89.9318 33.8807C89.838 34.2606 89.64 34.6067 89.36 34.88L69.5 54.24C69.2549 54.4772 69.0713 54.7705 68.965 55.0946C68.8588 55.4187 68.833 55.7637 68.89 56.1L73.58 83.44C73.6395 83.8197 73.5936 84.2084 73.4474 84.5638C73.3012 84.9192 73.0602 85.2277 72.7508 85.4556C72.4414 85.6835 72.0754 85.8222 71.6926 85.8565C71.3098 85.8907 70.925 85.8193 70.58 85.65L46 72.75C45.6941 72.5801 45.3499 72.491 45 72.491C44.6501 72.491 44.3059 72.5801 44 72.75L19.47 85.65C19.125 85.8193 18.7402 85.8907 18.3574 85.8565C17.9746 85.8222 17.6086 85.6835 17.2992 85.4556C16.9898 85.2277 16.7489 84.9192 16.6027 84.5638C16.4565 84.2084 16.4106 83.8197 16.47 83.44L21.11 56.1C21.167 55.7637 21.1413 55.4187 21.035 55.0946C20.9287 54.7705 20.7451 54.4772 20.5 54.24L0.640015 34.87C0.360062 34.5967 0.16204 34.2506 0.0682747 33.8707C-0.0254906 33.4908 -0.0112696 33.0923 0.109335 32.7201C0.22994 32.3479 0.452131 32.0168 0.750856 31.7641C1.04958 31.5114 1.41296 31.3472 1.80002 31.29L29.25 27.29C29.5884 27.2414 29.9099 27.1114 30.1868 26.9111C30.4638 26.7108 30.688 26.4461 30.84 26.14L43.11 1.27C43.2847 0.918064 43.5542 0.62189 43.8881 0.414839C44.222 0.207788 44.6071 0.0980835 45 0.0980835C45.3929 0.0980835 45.778 0.207788 46.1119 0.414839C46.4459 0.62189 46.7153 0.918064 46.89 1.27Z" fill="white"/>
</svg>
