<?xml version="1.0" encoding="UTF-8"?>
<svg width="16px" height="16px" viewBox="0 0 16 16" version="1.1" xmlns="http://www.w3.org/2000/svg" xmlns:xlink="http://www.w3.org/1999/xlink">
    <!-- Generator: Sketch 54.1 (76490) - https://sketchapp.com -->
    <title>award-49 copy</title>
    <desc>Created with Sketch.</desc>
    <g id="NEW!-forside" stroke="none" stroke-width="1" fill="none" fill-rule="evenodd" stroke-linecap="round" stroke-linejoin="round">
        <g id="index_1" transform="translate(-1038.000000, -2207.000000)" stroke="#111111">
            <g id="Group-22" transform="translate(130.000000, 2166.000000)">
                <g id="Group-21" transform="translate(800.000000, 0.000000)">
                    <g id="Group-11" transform="translate(25.000000, 38.000000)">
                        <g id="Group-5" transform="translate(83.000000, 0.000000)">
                            <g id="award-49-copy" transform="translate(0.000000, 3.000000)">
                                <path d="M7.5,14.5 L1.5,14.5 C0.94771525,14.5 0.5,14.0522847 0.5,13.5 L0.5,1.5 C0.5,0.94771525 0.94771525,0.5 1.5,0.5 L11.5,0.5 C12.0522847,0.5 12.5,0.94771525 12.5,1.5 L12.5,5.5" id="Path"></path>
                                <circle id="Oval" cx="12.5" cy="8.5" r="3"></circle>
                                <polyline id="Path" points="14.5 10.736 14.5 15.5 12.5 14.5 10.5 15.5 10.5 10.736"></polyline>
                                <path d="M3.5,4.5 L8.5,4.5" id="Path"></path>
                                <path d="M3.5,7.5 L6.5,7.5" id="Path"></path>
                                <path d="M3.5,10.5 L6.5,10.5" id="Path"></path>
                            </g>
                        </g>
                    </g>
                </g>
            </g>
        </g>
    </g>
</svg>